<?xml version="1.0" encoding="UTF-8" standalone="no"?>
<!-- Created with Inkscape (http://www.inkscape.org/) -->

<svg
   width="24"
   height="24"
   viewBox="0 0 24 24"
   version="1.1"
   id="svg1"
   xml:space="preserve"
   inkscape:version="1.4 (86a8ad7, 2024-10-11)"
   sodipodi:docname="any_slice_color.svg"
   xmlns:inkscape="http://www.inkscape.org/namespaces/inkscape"
   xmlns:sodipodi="http://sodipodi.sourceforge.net/DTD/sodipodi-0.dtd"
   xmlns="http://www.w3.org/2000/svg"
   xmlns:svg="http://www.w3.org/2000/svg"><sodipodi:namedview
     id="namedview1"
     pagecolor="#505050"
     bordercolor="#eeeeee"
     borderopacity="1"
     inkscape:showpageshadow="0"
     inkscape:pageopacity="0"
     inkscape:pagecheckerboard="0"
     inkscape:deskcolor="#505050"
     inkscape:document-units="px"
     inkscape:zoom="15.769604"
     inkscape:cx="2.853591"
     inkscape:cy="17.533732"
     inkscape:window-width="1680"
     inkscape:window-height="979"
     inkscape:window-x="-8"
     inkscape:window-y="-8"
     inkscape:window-maximized="1"
     inkscape:current-layer="layer1" /><defs
     id="defs1" /><g
     inkscape:label="Layer 1"
     inkscape:groupmode="layer"
     id="layer1"
     transform="matrix(0.91666667,0,0,0.9165952,-2.6666667,-2.6655233)"
     style="stroke-width:1.09096"><circle
       style="opacity:0.900217;fill:#ffc107;fill-opacity:1;stroke:#fff5d6;stroke-width:1.09096;stroke-linecap:round;stroke-linejoin:round;stroke-miterlimit:13.1;stroke-dashoffset:1"
       id="path2-8"
       cx="16"
       cy="16"
       r="9.000001" /><path
       d="M 14.684079,4.0711276 C 11.620791,4.4274692 8.77631,5.9466096 6.8195572,8.2847104 3.7750248,11.916894 3.1436126,16.92443 5.1816363,21.181775 c 1.2065601,2.506893 3.1320548,4.432389 5.6326977,5.632697 4.263596,2.044276 9.271132,1.412863 12.903315,-1.63167 C 26.412092,22.932224 28,19.518847 28,16.005445 28,12.492042 26.412092,9.0786644 23.717649,6.828086 21.217007,4.7275462 17.859894,3.7085344 14.684079,4.0711276 Z m 3.38837,6.3078704 0.01876,2.119295 1.837973,-1.056521 c 1.01276,-0.587652 1.850476,-1.056522 1.856727,-1.044019 0.06877,0.06877 1.963004,3.400874 1.963004,3.450887 -0.0063,0.03125 -0.81896,0.525135 -1.812965,1.094031 -0.994006,0.568897 -1.806715,1.044018 -1.806715,1.062774 0,0.01876 0.812709,0.493876 1.806715,1.062773 0.994005,0.568895 1.806714,1.062772 1.812965,1.09403 0,0.05001 -1.894236,3.38212 -1.963004,3.450887 -0.0063,0.01251 -0.843967,-0.456367 -1.856727,-1.044018 l -1.837973,-1.056522 -0.01876,2.119295 -0.01251,2.125546 h -2.000512 -2.000514 l -0.01251,-2.125546 -0.01876,-2.119295 -1.837973,1.056522 c -1.01276,0.587651 -1.850475,1.056521 -1.856727,1.044018 -0.06877,-0.06877 -1.9630044,-3.400874 -1.9630044,-3.450887 0.00625,-0.03125 0.8189604,-0.525135 1.8129664,-1.09403 0.994005,-0.568897 1.806714,-1.044019 1.806714,-1.062773 0,-0.01876 -0.812709,-0.493877 -1.806714,-1.062774 -0.994006,-0.568896 -1.8067149,-1.062773 -1.8129664,-1.094031 0,-0.05001 1.8942364,-3.382119 1.9630044,-3.450887 0.0062,-0.0125 0.843967,0.456367 1.856727,1.044019 l 1.837973,1.056521 0.01876,-2.119295 0.01251,-2.1255457 h 2.000514 2.000515 z"
       id="path1"
       style="stroke-width:0.109096;fill:#ffffff;fill-opacity:1" /></g></svg>
