<?xml version="1.0" encoding="UTF-8" standalone="no"?>
<!-- Created with Inkscape (http://www.inkscape.org/) -->

<svg
   width="24"
   height="24"
   viewBox="0 0 24 24"
   version="1.1"
   id="svg1"
   xml:space="preserve"
   inkscape:version="1.4 (86a8ad7, 2024-10-11)"
   sodipodi:docname="debug_black.svg"
   xmlns:inkscape="http://www.inkscape.org/namespaces/inkscape"
   xmlns:sodipodi="http://sodipodi.sourceforge.net/DTD/sodipodi-0.dtd"
   xmlns="http://www.w3.org/2000/svg"
   xmlns:svg="http://www.w3.org/2000/svg"><sodipodi:namedview
     id="namedview1"
     pagecolor="#ffffff"
     bordercolor="#000000"
     borderopacity="0.25"
     inkscape:showpageshadow="2"
     inkscape:pageopacity="0.0"
     inkscape:pagecheckerboard="0"
     inkscape:deskcolor="#d1d1d1"
     inkscape:document-units="px"
     inkscape:zoom="16"
     inkscape:cx="18.5625"
     inkscape:cy="15.46875"
     inkscape:window-width="1680"
     inkscape:window-height="979"
     inkscape:window-x="-8"
     inkscape:window-y="-8"
     inkscape:window-maximized="1"
     inkscape:current-layer="layer1" /><defs
     id="defs1"><inkscape:path-effect
       effect="fillet_chamfer"
       id="path-effect5"
       is_visible="true"
       lpeversion="1"
       nodesatellites_param="F,0,0,1,0,0,0,1 @ F,0,0,1,0,0,0,1 @ F,0,0,1,0,0,0,1"
       radius="0"
       unit="px"
       method="auto"
       mode="F"
       chamfer_steps="1"
       flexible="false"
       use_knot_distance="true"
       apply_no_radius="true"
       apply_with_radius="true"
       only_selected="false"
       hide_knots="false" /></defs><g
     inkscape:label="Layer 1"
     inkscape:groupmode="layer"
     id="layer1"
     transform="matrix(0.6896381,0,0,0.6896381,-0.55131442,-0.55131442)"
     style="stroke-width:1.45004"><g
       id="g1"
       transform="matrix(0.35610648,0,0,0.35610648,0.3947105,0.39439)"
       style="stroke-width:4.0719"><path
         id="path3"
         style="fill:#4ab563;stroke:#4ab563;stroke-width:16.2877;stroke-miterlimit:13.1"
         d="m 52.955481,33.686997 -1.577093,0.05943 -1.577091,0.05519 -4.360412,5.782661 -4.36401,5.786909 1.425863,1.494491 c 0.783084,0.821535 1.461284,1.490245 1.508683,1.490245 0.0474,0 1.261578,-1.553151 2.696899,-3.451765 l 2.606885,-3.451766 0.0468,7.366313 0.04321,7.366313 h 2.04158 2.037979 l 0.04321,-7.349329 0.0468,-7.349332 2.552873,3.422046 c 1.404676,1.881887 2.632055,3.423248 2.725707,3.426291 0.09365,0.0031 0.78221,-0.659661 1.530285,-1.473262 1.274698,-1.386348 1.341822,-1.500276 1.091002,-1.846887 -0.147188,-0.203424 -2.123263,-2.837709 -4.392817,-5.850592 z m -3.553859,25.911589 v 4.016444 4.016445 h 2.04518 2.04158 V 63.61503 59.598586 h -2.04158 z" /><path
         d="m 50,7.9531 c -23.223,0 -42.047,18.824 -42.047,42.047 0,23.223 18.824,42.047 42.047,42.047 10.086,0 19.332,-3.5469 26.574,-9.4609 l 4.3125,5.2772 c -8.4141,6.875 -19.176,11 -30.887,11 -26.988,0 -48.863,-21.875 -48.863,-48.863 0,-26.988 21.875,-48.863 48.863,-48.863 26.988,0 48.863,21.875 48.863,48.863 0,9.3789 -2.6445,18.152 -7.2344,25.598 l -5.8047,-3.5781 c 3.9453,-6.4023 6.2227,-13.938 6.2227,-22.02 0,-23.223 -18.824,-42.047 -42.047,-42.047 z"
         fill-rule="evenodd"
         id="path1"
         style="stroke-width:4.0719;fill:#1c1c1c;fill-opacity:1"
         sodipodi:nodetypes="cssccssssccscc" /><path
         d="m 49.999501,83.500861 c 18.502984,0 33.50046,-14.997476 33.50046,-33.50046 0,-18.502985 -14.997476,-33.500461 -33.50046,-33.500461 -18.502985,0 -33.500461,14.997476 -33.500461,33.500461 0,18.502984 14.997476,33.50046 33.500461,33.50046 z M 47.042665,57.34697 H 52.95625 V 39.592255 l 7.546079,8.491084 4.419994,-3.928807 -11.966247,-13.459317 v -0.04064 h -0.03726 l -0.711255,-0.799322 h -4.416612 l -0.711255,0.799322 h -0.03726 v 0.04064 l -11.966246,13.459317 4.419994,3.928807 7.546079,-8.491084 z m 5.913585,3.939037 v 9.852363 h -5.913585 v -9.852363 z"
         fill-rule="evenodd"
         id="path2"
         style="stroke-width:4.0719;fill:#1c1c1c;fill-opacity:1" /></g></g></svg>
