<?xml version="1.0" encoding="UTF-8" standalone="no"?>
<!-- Created with Inkscape (http://www.inkscape.org/) -->

<svg
   width="32"
   height="32"
   viewBox="0 0 32 32"
   version="1.1"
   id="svg1"
   xml:space="preserve"
   inkscape:version="1.4 (86a8ad7, 2024-10-11)"
   sodipodi:docname="debug.svg"
   xmlns:inkscape="http://www.inkscape.org/namespaces/inkscape"
   xmlns:sodipodi="http://sodipodi.sourceforge.net/DTD/sodipodi-0.dtd"
   xmlns="http://www.w3.org/2000/svg"
   xmlns:svg="http://www.w3.org/2000/svg"><sodipodi:namedview
     id="namedview1"
     pagecolor="#ffffff"
     bordercolor="#000000"
     borderopacity="0.25"
     inkscape:showpageshadow="2"
     inkscape:pageopacity="0.0"
     inkscape:pagecheckerboard="0"
     inkscape:deskcolor="#d1d1d1"
     inkscape:document-units="px"
     inkscape:zoom="5.4137863"
     inkscape:cx="46.917256"
     inkscape:cy="32.417238"
     inkscape:window-width="1680"
     inkscape:window-height="979"
     inkscape:window-x="-8"
     inkscape:window-y="-8"
     inkscape:window-maximized="1"
     inkscape:current-layer="layer1" /><defs
     id="defs1"><inkscape:path-effect
       effect="fillet_chamfer"
       id="path-effect5"
       is_visible="true"
       lpeversion="1"
       nodesatellites_param="F,0,0,1,0,0,0,1 @ F,0,0,1,0,0,0,1 @ F,0,0,1,0,0,0,1"
       radius="0"
       unit="px"
       method="auto"
       mode="F"
       chamfer_steps="1"
       flexible="false"
       use_knot_distance="true"
       apply_no_radius="true"
       apply_with_radius="true"
       only_selected="false"
       hide_knots="false" /></defs><g
     inkscape:label="Layer 1"
     inkscape:groupmode="layer"
     id="layer1"
     transform="matrix(0.6896381,0,0,0.6896381,-0.55131442,-0.55131442)"
     style="stroke-width:1.45004"><g
       id="g1"
       transform="matrix(0.38955653,0,0,0.38955653,4.5223682,4.5220175)"
       style="stroke-width:3.72226"><circle
         style="fill:#d63384;stroke:#d63384;stroke-width:14.8891;stroke-miterlimit:13.1;stroke-opacity:1"
         id="path4"
         cx="49.9995"
         cy="50.000401"
         r="52.111805" /><path
         id="path3"
         style="fill:#28a745;stroke:#28a745;stroke-width:4.92679;stroke-miterlimit:13.1"
         d="m 24.832031,16.386719 -0.855469,0.02734 -0.855468,0.02539 -2.365235,2.660156 -2.367187,2.66211 0.773437,0.6875 c 0.424771,0.377925 0.79265,0.685547 0.81836,0.685547 0.02571,0 0.684323,-0.714485 1.46289,-1.587891 l 1.414063,-1.587891 0.02539,3.388672 0.02344,3.388672 h 1.107422 1.105469 l 0.02344,-3.380859 0.02539,-3.38086 1.384765,1.574219 c 0.761944,0.865711 1.427716,1.574772 1.478516,1.576172 0.0508,0.0014 0.424297,-0.303459 0.830078,-0.677734 0.69144,-0.637752 0.72785,-0.690161 0.591797,-0.84961 -0.07984,-0.09358 -1.15173,-1.305411 -2.382813,-2.691406 z m -1.927734,11.919922 v 1.847656 1.847656 h 1.109375 1.107422 v -1.847656 -1.847656 h -1.107422 z"
         transform="matrix(3.0220752,0,0,3.0220752,-22.530305,-22.529405)" /><path
         d="m 50,7.9531 c -23.223,0 -42.047,18.824 -42.047,42.047 0,23.223 18.824,42.047 42.047,42.047 10.086,0 19.332,-3.5469 26.574,-9.4609 l 2.6406,-2.1602 4.3125,5.2812 -2.6406,2.1562 c -8.4141,6.875 -19.176,11 -30.887,11 -26.988,0 -48.863,-21.875 -48.863,-48.863 0,-26.988 21.875,-48.863 48.863,-48.863 26.988,0 48.863,21.875 48.863,48.863 0,9.3789 -2.6445,18.152 -7.2344,25.598 l -1.7891,2.9023 -5.8047,-3.5781 1.7891,-2.9023 c 3.9453,-6.4023 6.2227,-13.938 6.2227,-22.02 0,-23.223 -18.824,-42.047 -42.047,-42.047 z"
         fill-rule="evenodd"
         id="path1"
         style="stroke-width:3.72226" /><path
         d="M 50,88.637 C 71.34,88.637 88.637,71.34 88.637,50 88.637,28.66 71.34,11.363 50,11.363 28.66,11.363 11.363,28.66 11.363,50 11.363,71.34 28.66,88.637 50,88.637 Z M 46.5898,58.473 h 6.8203 V 37.996 l 8.7031,9.793 5.0977,-4.5312 -13.801,-15.523 v -0.04687 h -0.04297 l -0.82031,-0.92188 h -5.0938 l -0.82031,0.92188 h -0.04297 v 0.04687 l -13.801,15.523 5.0977,4.5312 8.7031,-9.793 z m 6.8203,4.543 V 74.379 H 46.5898 V 63.016 Z"
         fill-rule="evenodd"
         id="path2"
         style="stroke-width:3.72226" /></g></g></svg>
