<?xml version="1.0" encoding="UTF-8" standalone="no"?>
<!-- Created with Inkscape (http://www.inkscape.org/) -->

<svg
   width="24"
   height="24"
   viewBox="0 0 24 24"
   version="1.1"
   id="svg1"
   xml:space="preserve"
   inkscape:version="1.4 (86a8ad7, 2024-10-11)"
   sodipodi:docname="debug_color.svg"
   xmlns:inkscape="http://www.inkscape.org/namespaces/inkscape"
   xmlns:sodipodi="http://sodipodi.sourceforge.net/DTD/sodipodi-0.dtd"
   xmlns="http://www.w3.org/2000/svg"
   xmlns:svg="http://www.w3.org/2000/svg"><sodipodi:namedview
     id="namedview1"
     pagecolor="#ffffff"
     bordercolor="#000000"
     borderopacity="0.25"
     inkscape:showpageshadow="2"
     inkscape:pageopacity="0.0"
     inkscape:pagecheckerboard="0"
     inkscape:deskcolor="#d1d1d1"
     inkscape:document-units="px"
     inkscape:zoom="16"
     inkscape:cx="18.5625"
     inkscape:cy="15.46875"
     inkscape:window-width="1680"
     inkscape:window-height="979"
     inkscape:window-x="-8"
     inkscape:window-y="-8"
     inkscape:window-maximized="1"
     inkscape:current-layer="layer1" /><defs
     id="defs1"><inkscape:path-effect
       effect="fillet_chamfer"
       id="path-effect5"
       is_visible="true"
       lpeversion="1"
       nodesatellites_param="F,0,0,1,0,0,0,1 @ F,0,0,1,0,0,0,1 @ F,0,0,1,0,0,0,1"
       radius="0"
       unit="px"
       method="auto"
       mode="F"
       chamfer_steps="1"
       flexible="false"
       use_knot_distance="true"
       apply_no_radius="true"
       apply_with_radius="true"
       only_selected="false"
       hide_knots="false" /></defs><g
     inkscape:label="Layer 1"
     inkscape:groupmode="layer"
     id="layer1"
     transform="matrix(0.6896381,0,0,0.6896381,-0.55131442,-0.55131442)"
     style="stroke-width:1.45004"><g
       id="g1"
       transform="matrix(0.35610648,0,0,0.35610648,0.3947105,0.39439)"
       style="stroke-width:4.0719"><path
         id="path3"
         style="fill:#28a745;stroke:#28a745;stroke-width:16.2877;stroke-miterlimit:13.1"
         d="m 53.112071,35.204179 -1.583069,0.05574 -1.583067,0.05177 -4.376932,5.424108 -4.380545,5.428092 1.431266,1.401825 c 0.78605,0.770596 1.46682,1.397843 1.514398,1.397843 0.04758,0 1.266358,-1.456848 2.707117,-3.237739 l 2.616763,-3.23774 0.04699,6.909566 0.04338,6.909565 h 2.049316 2.0457 l 0.04338,-6.893635 0.04699,-6.893636 2.562545,3.209862 c 1.409999,1.765201 2.642028,3.21099 2.736036,3.213844 0.09401,0.0028 0.785172,-0.618759 1.536082,-1.381912 1.279528,-1.300388 1.346906,-1.407251 1.095136,-1.732371 C 61.5158,45.63855 59.532238,43.167604 57.254086,40.341534 Z m -3.567325,24.304944 v 3.767406 3.767404 h 2.052929 2.049315 v -3.767404 -3.767406 h -2.049315 z" /><path
         d="m 50,7.9531 c -23.223,0 -42.047,18.824 -42.047,42.047 0,23.223 18.824,42.047 42.047,42.047 10.086,0 19.332,-3.5469 26.574,-9.4609 l 4.3125,5.2772 c -8.4141,6.875 -19.176,11 -30.887,11 -26.988,0 -48.863,-21.875 -48.863,-48.863 0,-26.988 21.875,-48.863 48.863,-48.863 26.988,0 48.863,21.875 48.863,48.863 0,9.3789 -2.6445,18.152 -7.2344,25.598 l -5.8047,-3.5781 c 3.9453,-6.4023 6.2227,-13.938 6.2227,-22.02 0,-23.223 -18.824,-42.047 -42.047,-42.047 z"
         fill-rule="evenodd"
         id="path1"
         style="stroke-width:4.0719;fill:#d63384"
         sodipodi:nodetypes="cssccssssccscc" /><path
         d="m 49.999501,83.500861 c 18.502984,0 33.50046,-14.997476 33.50046,-33.50046 0,-18.502985 -14.997476,-33.500461 -33.50046,-33.500461 -18.502985,0 -33.500461,14.997476 -33.500461,33.500461 0,18.502984 14.997476,33.50046 33.500461,33.50046 z M 47.042665,57.34697 H 52.95625 V 39.592255 l 7.546079,8.491084 4.419994,-3.928807 -11.966247,-13.459317 v -0.04064 h -0.03726 l -0.711255,-0.799322 h -4.416612 l -0.711255,0.799322 h -0.03726 v 0.04064 l -11.966246,13.459317 4.419994,3.928807 7.546079,-8.491084 z m 5.913585,3.939037 v 9.852363 h -5.913585 v -9.852363 z"
         fill-rule="evenodd"
         id="path2"
         style="stroke-width:4.0719;fill:#d63384" /></g></g></svg>
