<?xml version="1.0" encoding="UTF-8" standalone="no"?>
<!-- Created with Inkscape (http://www.inkscape.org/) -->

<svg
   width="24"
   height="24"
   viewBox="0 0 24 24"
   version="1.1"
   id="svg1"
   xml:space="preserve"
   inkscape:version="1.4 (86a8ad7, 2024-10-11)"
   sodipodi:docname="heat_black.svg"
   xmlns:inkscape="http://www.inkscape.org/namespaces/inkscape"
   xmlns:sodipodi="http://sodipodi.sourceforge.net/DTD/sodipodi-0.dtd"
   xmlns="http://www.w3.org/2000/svg"
   xmlns:svg="http://www.w3.org/2000/svg"><sodipodi:namedview
     id="namedview1"
     pagecolor="#ffffff"
     bordercolor="#000000"
     borderopacity="0.25"
     inkscape:showpageshadow="2"
     inkscape:pageopacity="0.0"
     inkscape:pagecheckerboard="0"
     inkscape:deskcolor="#d1d1d1"
     inkscape:document-units="px"
     inkscape:zoom="10.827573"
     inkscape:cx="8.4506473"
     inkscape:cy="9.2818585"
     inkscape:window-width="1680"
     inkscape:window-height="979"
     inkscape:window-x="-8"
     inkscape:window-y="-8"
     inkscape:window-maximized="1"
     inkscape:current-layer="g3" /><defs
     id="defs1" /><g
     id="g3"
     transform="matrix(0.59093846,0,0,0.6,-2.7734615,-1.6488)"
     style="stroke-width:1.52754"><path
       style="display:inline;fill:#dc3545;stroke:#dc3545;stroke-width:2.28547;stroke-linecap:square;stroke-linejoin:bevel;stroke-miterlimit:13.1;stroke-dasharray:2.28547, 2.28547"
       d="M 23.135379,40.347299 C 21.0098,40.120772 19.03144,39.361253 17.432586,38.15792 c -0.834064,-0.627735 -1.069692,-0.872846 -0.8902,-0.926031 2.308032,-0.683895 3.521156,-1.226936 4.803518,-2.150244 0.868622,-0.625412 2.098771,-1.874029 2.658814,-2.698729 0.544038,-0.801132 1.244345,-2.296922 1.513036,-3.231703 0.260497,-0.906277 0.302895,-0.85414 0.433741,0.533375 0.201538,2.137118 -0.259436,4.188512 -1.251517,5.569414 -0.18176,0.252998 -0.308465,0.482005 -0.281566,0.508904 0.106542,0.106542 1.630248,-1.088527 2.51418,-1.971915 3.643893,-3.64165 4.13807,-8.189905 1.458121,-13.420098 -0.323597,-0.631533 -0.570822,-1.165778 -0.54939,-1.18721 0.02143,-0.02143 0.395694,0.176504 0.831693,0.439859 3.444144,2.080362 5.665513,4.812345 6.392126,7.86145 0.203472,0.853835 0.225293,2.893174 0.04092,3.823965 -0.322631,1.628742 -1.258252,3.817985 -2.111683,4.941089 -1.469659,1.934052 -3.973005,3.39018 -6.725692,3.912151 -0.778772,0.147673 -2.519557,0.250511 -3.133305,0.185102 z"
       id="path4"
       transform="matrix(0.94491433,0,0,0.94491433,2.3220561,-0.04713308)" /><path
       d="m 10.437,28.182 c 0,8.053 6.519,14.566 14.561,14.566 8.047,0 14.565,-6.514 14.565,-14.566 0,-2.232 -0.508,-4.354 -1.412,-6.256 v 0 C 35.776,17.02 31.69,14.042 28.008,10.801 24.336,7.554 27.088,2.748 27.088,2.748 c -12.733,9.108 -9.24,19.025 -8.646,21.973 -3.624,-1.786 -3.083,-9.056 -3.083,-9.056 -0.037,0.037 -0.079,0.063 -0.11,0.1 -3.793,3.425 -4.497,9.234 -4.497,9.234 -0.257,1.807 -0.315,3.183 -0.315,3.183 z m 23.606,5.306 c -2.396,4.291 -10.695,7.102 -16.358,1.658 2.27,-0.508 7.569,-2.195 8.973,-8.646 0,0 1.186,4.349 -1.298,7.274 2.921,-1.875 8.578,-6.844 2.99,-15.931 2.961,1.483 10.736,6.641 5.693,15.645 z"
       id="path1-0"
       style="fill:#1c1c1c;stroke:none;stroke-width:1.52754;fill-opacity:1" /></g></svg>
