<?xml version="1.0" encoding="UTF-8" standalone="no"?>
<!-- Created with Inkscape (http://www.inkscape.org/) -->

<svg
   width="32"
   height="32"
   viewBox="0 0 32 32"
   version="1.1"
   id="svg1"
   xml:space="preserve"
   inkscape:version="1.4 (86a8ad7, 2024-10-11)"
   sodipodi:docname="success.svg"
   xmlns:inkscape="http://www.inkscape.org/namespaces/inkscape"
   xmlns:sodipodi="http://sodipodi.sourceforge.net/DTD/sodipodi-0.dtd"
   xmlns="http://www.w3.org/2000/svg"
   xmlns:svg="http://www.w3.org/2000/svg"><sodipodi:namedview
     id="namedview1"
     pagecolor="#505050"
     bordercolor="#eeeeee"
     borderopacity="1"
     inkscape:showpageshadow="0"
     inkscape:pageopacity="0"
     inkscape:pagecheckerboard="0"
     inkscape:deskcolor="#505050"
     inkscape:document-units="px"
     inkscape:zoom="11.828125"
     inkscape:cx="5.7490092"
     inkscape:cy="15.852048"
     inkscape:window-width="1680"
     inkscape:window-height="979"
     inkscape:window-x="-8"
     inkscape:window-y="-8"
     inkscape:window-maximized="1"
     inkscape:current-layer="layer1" /><defs
     id="defs1" /><g
     inkscape:label="Layer 1"
     inkscape:groupmode="layer"
     id="layer1"><path
       d="M 15.559156,4.537576 A 1.9945122,1.9945122 0 0 0 14.211302,5.5997577 L 12.05058,9.9809323 a 1.9945122,1.9945122 0 0 1 -1.502376,1.0907487 l -4.839549,0.703793 a 1.9945122,1.9945122 0 0 0 -1.1037343,3.404695 l 3.5033818,3.409889 a 1.9945122,1.9945122 0 0 1 0.5778372,1.768571 L 7.8486004,25.15273 a 1.9945122,1.9945122 0 0 0 2.8982756,2.107483 l 4.321442,-2.280185 a 1.9945122,1.9945122 0 0 1 1.862065,0 l 4.31495,2.299662 a 1.9945122,1.9945122 0 0 0 2.898276,-2.107482 l -0.831047,-4.813579 a 1.9945122,1.9945122 0 0 1 0.585628,-1.768571 l 3.496889,-3.409889 A 1.9945122,1.9945122 0 0 0 26.291345,11.775474 L 21.451797,11.071681 A 1.9945122,1.9945122 0 0 1 19.94942,9.9809323 L 17.788698,5.5997577 A 1.9945122,1.9945122 0 0 0 15.559156,4.537576 Z m -5.314804,8.146855 a 0.66483741,0.66483741 0 0 1 0.07142,1.251765 L 8.3212582,14.933452 A 0.61829879,0.61829879 0 0 1 8.0213023,15.007467 0.66483741,0.66483741 0 0 1 7.43048,14.641287 0.66483741,0.66483741 0 0 1 7.7226449,13.750509 l 1.9945122,-0.997257 a 0.66483741,0.66483741 0 0 1 0.5271949,-0.06882 z m 2.637275,1.028421 a 0.66483741,0.66483741 0 0 1 0.385658,0.329821 0.66483741,0.66483741 0 0 1 -0.292165,0.890779 l -2.65935,1.329675 a 0.61829879,0.61829879 0 0 1 -0.299955,0.07401 0.66483741,0.66483741 0 0 1 -0.5908228,-0.36618 0.66483741,0.66483741 0 0 1 0.2921649,-0.890779 l 2.6593489,-1.329669 a 0.66483741,0.66483741 0 0 1 0.505121,-0.03766 z"
       id="path2"
       style="stroke-width:5;fill:#1c1c1c;stroke:#3cb1c3;paint-order:markers stroke fill;stroke-dasharray:none" /><path
       d="m 12.625914,13.682275 a 0.66483741,0.66483741 0 0 0 -0.25,0.06836 l -2.658203,1.330078 a 0.66483741,0.66483741 0 0 0 -0.292969,0.890625 0.66483741,0.66483741 0 0 0 0.591797,0.365234 0.61829879,0.61829879 0 0 0 0.298828,-0.07422 l 2.660156,-1.328125 a 0.66483741,0.66483741 0 0 0 0.291016,-0.890625 0.66483741,0.66483741 0 0 0 -0.384766,-0.330078 0.66483741,0.66483741 0 0 0 -0.255859,-0.03125 z"
       style="fill:#ffffff;stroke:none;stroke-width:5;paint-order:markers stroke fill"
       id="path5" /><path
       d="m 9.97357,12.664697 a 0.66483741,0.66483741 0 0 0 -0.255859,0.08789 L 7.72357,13.750634 a 0.66483741,0.66483741 0 0 0 -0.292968,0.890625 0.66483741,0.66483741 0 0 0 0.591796,0.365234 0.61829879,0.61829879 0 0 0 0.298829,-0.07227 l 1.99414,-0.998047 a 0.66483741,0.66483741 0 0 0 -0.07031,-1.251953 0.66483741,0.66483741 0 0 0 -0.271485,-0.01953 z"
       style="fill:#ffffff;stroke:none;stroke-width:5;paint-order:markers stroke fill"
       id="path3" /></g></svg>
