<?xml version="1.0" encoding="UTF-8" standalone="no"?>
<!-- Created with Inkscape (http://www.inkscape.org/) -->

<svg
   width="24"
   height="24"
   viewBox="0 0 24 24"
   version="1.1"
   id="svg1"
   xml:space="preserve"
   inkscape:version="1.4 (86a8ad7, 2024-10-11)"
   sodipodi:docname="success_black.svg"
   xmlns:inkscape="http://www.inkscape.org/namespaces/inkscape"
   xmlns:sodipodi="http://sodipodi.sourceforge.net/DTD/sodipodi-0.dtd"
   xmlns="http://www.w3.org/2000/svg"
   xmlns:svg="http://www.w3.org/2000/svg"><sodipodi:namedview
     id="namedview1"
     pagecolor="#505050"
     bordercolor="#eeeeee"
     borderopacity="1"
     inkscape:showpageshadow="0"
     inkscape:pageopacity="0"
     inkscape:pagecheckerboard="0"
     inkscape:deskcolor="#505050"
     inkscape:document-units="px"
     inkscape:zoom="16.727495"
     inkscape:cx="20.026908"
     inkscape:cy="19.219854"
     inkscape:window-width="1680"
     inkscape:window-height="979"
     inkscape:window-x="-8"
     inkscape:window-y="-8"
     inkscape:window-maximized="1"
     inkscape:current-layer="layer1" /><defs
     id="defs1" /><g
     inkscape:label="Layer 1"
     inkscape:groupmode="layer"
     id="layer1"
     transform="translate(-3.9999999,-4.0000002)"><path
       style="opacity:0.900217;fill:#ffffff;fill-opacity:1;stroke:none;stroke-width:5;stroke-linecap:round;stroke-linejoin:round;stroke-miterlimit:13.1;stroke-dasharray:none;stroke-dashoffset:1;stroke-opacity:1;paint-order:markers stroke fill"
       d="m 10.516218,17.929163 -4.7825455,-3.826036 4.6282825,-2.198239 4.142669,1.965654 z"
       id="path5" /><path
       d="m 15.564667,4.6808561 a 1.9695808,1.9695808 0 0 0 -1.331006,1.0489045 l -2.133713,4.3264104 a 1.9695808,1.9695808 0 0 1 -1.483596,1.077113 L 5.8372966,11.82828 A 1.9695808,1.9695808 0 0 0 4.747359,15.190416 l 3.4595896,3.367266 a 1.9695808,1.9695808 0 0 1 0.5706142,1.746464 l -0.82707,4.734175 A 1.9695808,1.9695808 0 0 0 10.81254,27.11946 l 4.267424,-2.251683 a 1.9695808,1.9695808 0 0 1 1.838789,0 l 4.261014,2.270917 a 1.9695808,1.9695808 0 0 0 2.862047,-2.081139 l -0.820659,-4.753409 a 1.9695808,1.9695808 0 0 1 0.578308,-1.746464 l 3.453178,-3.367266 A 1.9695808,1.9695808 0 0 0 26.162704,11.82828 L 21.38365,11.133284 A 1.9695808,1.9695808 0 0 1 19.900053,10.056171 L 17.76634,5.7297606 A 1.9695808,1.9695808 0 0 0 15.564667,4.6808561 Z m -5.248369,8.0450189 a 0.65652696,0.65652696 0 0 1 0.07053,1.236118 l -1.9695827,0.98479 a 0.61057007,0.61057007 0 0 1 -0.2962064,0.07309 0.65652696,0.65652696 0 0 1 -0.583437,-0.361603 0.65652696,0.65652696 0 0 1 0.2885128,-0.879643 l 1.9695808,-0.984791 a 0.65652696,0.65652696 0 0 1 0.5206055,-0.06796 z m 2.604309,1.015566 a 0.65652696,0.65652696 0 0 1 0.380837,0.325698 0.65652696,0.65652696 0 0 1 -0.288513,0.879644 l -2.626108,1.313054 A 0.61057007,0.61057007 0 0 1 10.090617,16.332927 0.65652696,0.65652696 0 0 1 9.5071797,15.971325 0.65652696,0.65652696 0 0 1 9.7956925,15.09168 L 12.4218,13.778627 a 0.65652696,0.65652696 0 0 1 0.498807,-0.03719 z"
       id="path2"
       style="fill:#1c1c1c;stroke:none;stroke-width:5;stroke-dasharray:none;paint-order:markers stroke fill;fill-opacity:1" /></g></svg>
